#!OML:ASF X:\für Bonn\!DataBase\2005_08_12_Daniel\c3d\Daniel.ASF
:FULLY-SPECIFIED
:DEGREES
446
root 21.7087 1.25514 0.0765308 -1282.03 261.604 101.237
lowerback 14.2077 -2.80835 -5.07637
upperback 2.83061 -4.72392 -1.60614
thorax -4.6819 -2.34605 2.00937
lowerneck -11.3151 1.08999 -8.70248
upperneck 1.58853 2.41685 2.67164
head 2.37677 1.1806 2.56062
rclavicle -7.71285e-014 9.84357e-014
rhumerus -409.909 -22.3701 296.814
rradius 11.7825
rwrist 73.0499
rhand -9.52468 733.469
rfingers 7.12502
rthumb 16.4413 704.146
lclavicle -7.71285e-014 9.84357e-014
lhumerus -410.789 23.7103 -297.012
lradius 18.0614
lwrist -58.0096
lhand -7.62483 -722.422
lfingers 7.12502
lthumb 18.2698 26.7404
rfemur 5.98721 15.7111 16.3962
rtibia 25.242
rfoot 354.407 -29.1684
rtoes 28.0642
lfemur -0.900356 -23.4531 -26.4063
ltibia 29.2568
lfoot 18.3797 12.5992
ltoes -0.2972
447
root 21.7088 1.25364 0.0764058 -1282.03 261.605 101.245
lowerback 14.2034 -2.80924 -5.0854
upperback 2.83354 -4.7258 -1.59965
thorax -4.67502 -2.34717 2.02108
lowerneck -11.3753 1.08887 -8.68183
upperneck 1.64026 2.41967 2.64914
head 2.40551 1.18035 2.55165
rclavicle -6.0033e-014 5.79147e-014
rhumerus -410.022 -22.8003 297.28
rradius 11.7018
rwrist 73.6802
rhand -9.59806 733.595
rfingers 7.12502
rthumb 16.3707 704.266
lclavicle -6.0033e-014 5.79147e-014
lhumerus -410.763 23.7779 -297.006
lradius 18.0075
lwrist -58.7261
lhand -7.40631 -722.379
lfingers 7.12502
lthumb 18.48 26.7631
rfemur 5.9272 15.6283 16.3532
rtibia 25.3013
rfoot 354.468 -29.1024
rtoes 27.9567
lfemur -0.915652 -23.3941 -26.3637
ltibia 29.2494
lfoot 18.3554 12.6824
ltoes -0.109197
448
root 21.7096 1.25234 0.075968 -1281.95 261.628 101.19
lowerback 14.165 -2.81233 -5.09343
upperback 2.84172 -4.72705 -1.57532
thorax -4.64255 -2.34884 2.04832
lowerneck -11.4933 1.08638 -8.67584
upperneck 1.69759 2.42846 2.59584
head 2.44661 1.18136 2.5366
rclavicle -2.06736e-014 -5.00378e-014
rhumerus -410.11 -23.2769 297.785
rradius 11.6111
rwrist 74.3552
rhand -9.67674 733.649
rfingers 7.12502
rthumb 16.2949 704.314
lclavicle -2.06736e-014 -5.00378e-014
lhumerus -410.701 23.7714 -296.879
lradius 17.9791
lwrist -59.2637
lhand -7.07658 -722.294
lfingers 7.12502
lthumb 18.7972 26.8178
rfemur 5.82866 15.4896 16.3047
rtibia 25.3661
rfoot 354.606 -29.0125
rtoes 27.8136
lfemur -0.95216 -23.3217 -26.2915
ltibia 29.2425
lfoot 18.3282 12.7195
ltoes 0.0263397
449
root 21.7087 1.25029 0.0756346 -1282.05 261.627 101.32
lowerback 14.144 -2.81701 -5.1312
upperback 2.84328 -4.73708 -1.5695
thorax -4.62516 -2.35389 2.07557
lowerneck -11.5472 1.09225 -8.65791
upperneck 1.71612 2.43939 2.57375
head 2.46242 1.18561 2.52787
rclavicle -6.36111e-015 3.54147e-014
rhumerus -410.245 -23.8454 298.376
rradius 11.495
rwrist 75.1688
rhand -9.82009 733.746
rfingers 7.12502
rthumb 16.1569 704.399
lclavicle -6.36111e-015 3.54147e-014
lhumerus -410.682 23.8138 -296.82
lradius 17.9754
lwrist -59.847
lhand -6.7505 -722.274
lfingers 7.12502
lthumb 19.1108 26.8067
rfemur 5.74099 15.4209 16.2408
rtibia 25.4332
rfoot 354.632 -28.922
rtoes 27.8375
lfemur -0.997796 -23.2335 -26.2546
ltibia 29.2377
lfoot 18.3151 12.7738
ltoes 0.0548857
450
root 21.7092 1.24879 0.0755258 -1282.04 261.635 101.336
lowerback 14.1284 -2.82154 -5.14787
upperback 2.8479 -4.7435 -1.55042
thorax -4.60827 -2.3575 2.1046
lowerneck -11.6208 1.1048 -8.65395
upperneck 1.73033 2.46306 2.53135
head 2.47961 1.1951 2.5158
rclavicle 4.17448e-014 -1.12935e-014
rhumerus -410.335 -24.3445 298.915
rradius 11.3661
rwrist 75.8353
rhand -9.9038 733.818
rfingers 7.12502
rthumb 16.0763 704.465
lclavicle 4.17448e-014 -1.12935e-014
lhumerus -410.619 23.7901 -296.678
lradius 17.9497
lwrist -60.3362
lhand -6.38368 -722.239
lfingers 7.12502
lthumb 19.4635 26.8064
rfemur 5.65663 15.3231 16.1878
rtibia 25.497
rfoot 354.769 -28.8271
rtoes 27.7523
lfemur -1.03261 -23.1805 -26.2118
ltibia 29.239
lfoot 18.2862 12.8329
ltoes 0.152544
451
root 21.7091 1.2477 0.075164 -1282.09 261.655 101.392
lowerback 14.1338 -2.82035 -5.17051
upperback 2.84662 -4.74484 -1.53174
thorax -4.60899 -2.35781 2.13731
lowerneck -11.6909 1.10123 -8.68576
upperneck 1.76125 2.4692 2.52449
head 2.50271 1.19671 2.52193
rclavicle -6.36111e-015 -1.76918e-014
rhumerus -410.461 -24.8561 299.493
rradius 11.2409
rwrist 76.562
rhand -10.0239 733.905
rfingers 7.12502
rthumb 15.9606 704.543
lclavicle -6.36111e-015 -1.76918e-014
lhumerus -410.614 23.8313 -296.623
lradius 17.9552
lwrist -60.9537
lhand -6.02263 -722.241
lfingers 7.12502
lthumb 19.8106 26.7697
rfemur 5.59718 15.2876 16.1627
rtibia 25.5616
rfoot 354.779 -28.7529
rtoes 27.8137
lfemur -1.05142 -23.0784 -26.1684
ltibia 29.2419
lfoot 18.2398 12.8853
ltoes 0.181104
452
root 21.7085 1.24602 0.0752779 -1282.06 261.663 101.378
lowerback 14.1163 -2.82336 -5.16837
upperback 2.87172 -4.74707 -1.52894
thorax -4.57265 -2.36102 2.13726
lowerneck -11.7612 1.09955 -8.68886
upperneck 1.73127 2.4721 2.52651
head 2.50539 1.19854 2.52435
rclavicle -2.78299e-015 6.41702e-014
rhumerus -410.615 -25.5568 300.177
rradius 11.0882
rwrist 77.4372
rhand -10.1456 733.968
rfingers 7.12502
rthumb 15.8434 704.596
lclavicle -2.78299e-015 6.41702e-014
lhumerus -410.509 23.7621 -296.457
lradius 17.9545
lwrist -61.3861
lhand -5.635 -722.229
lfingers 7.12502
lthumb 20.1832 26.7422
rfemur 5.53241 15.2199 16.1351
rtibia 25.6216
rfoot 354.862 -28.6659
rtoes 27.7999
lfemur -1.07966 -23.0161 -26.1238
ltibia 29.2539
lfoot 18.193 12.9203
ltoes 0.173954
